<svg xmlns="http://www.w3.org/2000/svg" xmlns:xlink="http://www.w3.org/1999/xlink" width="800" zoomAndPan="magnify" viewBox="0 0 600 599.999999" height="800" preserveAspectRatio="xMidYMid meet" version="1.0"><defs><g/><clipPath id="08b882f863"><path d="M 7.3125 24.238281 L 575.761719 24.238281 L 575.761719 592.6875 L 7.3125 592.6875 Z M 7.3125 24.238281 " clip-rule="nonzero"/></clipPath><clipPath id="7c0a253524"><path d="M 291.535156 24.238281 C 134.5625 24.238281 7.3125 151.492188 7.3125 308.464844 C 7.3125 465.4375 134.5625 592.6875 291.535156 592.6875 C 448.507812 592.6875 575.761719 465.4375 575.761719 308.464844 C 575.761719 151.492188 448.507812 24.238281 291.535156 24.238281 Z M 291.535156 24.238281 " clip-rule="nonzero"/></clipPath><clipPath id="d8c796cdbf"><path d="M 0.3125 0.238281 L 568.761719 0.238281 L 568.761719 568.6875 L 0.3125 568.6875 Z M 0.3125 0.238281 " clip-rule="nonzero"/></clipPath><clipPath id="88bac50fe8"><path d="M 284.535156 0.238281 C 127.5625 0.238281 0.3125 127.492188 0.3125 284.464844 C 0.3125 441.4375 127.5625 568.6875 284.535156 568.6875 C 441.507812 568.6875 568.761719 441.4375 568.761719 284.464844 C 568.761719 127.492188 441.507812 0.238281 284.535156 0.238281 Z M 284.535156 0.238281 " clip-rule="nonzero"/></clipPath><clipPath id="cc5d5ed6ae"><rect x="0" width="569" y="0" height="569"/></clipPath><clipPath id="b670f21386"><rect x="0" width="440" y="0" height="588"/></clipPath></defs><g clip-path="url(#08b882f863)"><g clip-path="url(#7c0a253524)"><g transform="matrix(1, 0, 0, 1, 7, 24)"><g clip-path="url(#cc5d5ed6ae)"><g clip-path="url(#d8c796cdbf)"><g clip-path="url(#88bac50fe8)"><path fill="#000000" d="M 0.3125 0.238281 L 568.761719 0.238281 L 568.761719 568.6875 L 0.3125 568.6875 Z M 0.3125 0.238281 " fill-opacity="1" fill-rule="nonzero"/></g></g></g></g></g></g><g transform="matrix(1, 0, 0, 1, 81, 4)"><g clip-path="url(#b670f21386)"><g fill="#ffffff" fill-opacity="1"><g transform="translate(0.582594, 469.63268)"><g><path d="M 107.484375 4.890625 C 95.109375 4.890625 83.460938 3.179688 72.546875 -0.234375 C 61.640625 -3.660156 52.113281 -8.789062 43.96875 -15.625 C 35.820312 -22.46875 29.390625 -30.851562 24.671875 -40.78125 C 19.953125 -50.71875 17.59375 -62.203125 17.59375 -75.234375 L 17.59375 -76.21875 C 17.59375 -90.539062 20.195312 -102.910156 25.40625 -113.328125 C 30.613281 -123.753906 37.859375 -132.390625 47.140625 -139.234375 C 56.421875 -146.078125 67.492188 -151.207031 80.359375 -154.625 C 93.222656 -158.039062 107.472656 -159.75 123.109375 -159.75 C 136.460938 -159.75 148.109375 -158.769531 158.046875 -156.8125 C 167.984375 -154.863281 177.671875 -152.257812 187.109375 -149 L 187.109375 -153.40625 C 187.109375 -169.039062 182.382812 -180.925781 172.9375 -189.0625 C 163.5 -197.207031 149.5 -201.28125 130.9375 -201.28125 C 116.601562 -201.28125 103.976562 -200.054688 93.0625 -197.609375 C 82.15625 -195.171875 70.675781 -191.671875 58.625 -187.109375 L 40.0625 -243.78125 C 54.394531 -249.96875 69.375 -255.015625 85 -258.921875 C 100.632812 -262.835938 119.523438 -264.796875 141.671875 -264.796875 C 162.191406 -264.796875 179.695312 -262.269531 194.1875 -257.21875 C 208.6875 -252.164062 220.660156 -244.921875 230.109375 -235.484375 C 239.878906 -225.710938 247.039062 -213.738281 251.59375 -199.5625 C 256.15625 -185.394531 258.4375 -169.519531 258.4375 -151.9375 L 258.4375 0 L 186.625 0 L 186.625 -28.328125 C 177.507812 -18.234375 166.597656 -10.171875 153.890625 -4.140625 C 141.191406 1.878906 125.722656 4.890625 107.484375 4.890625 Z M 129.953125 -46.40625 C 147.535156 -46.40625 161.617188 -50.640625 172.203125 -59.109375 C 182.796875 -67.578125 188.09375 -78.648438 188.09375 -92.328125 L 188.09375 -105.53125 C 181.570312 -108.457031 174.320312 -110.816406 166.34375 -112.609375 C 158.363281 -114.398438 149.816406 -115.296875 140.703125 -115.296875 C 124.742188 -115.296875 112.203125 -112.203125 103.078125 -106.015625 C 93.960938 -99.828125 89.40625 -90.867188 89.40625 -79.140625 L 89.40625 -78.171875 C 89.40625 -68.066406 93.148438 -60.242188 100.640625 -54.703125 C 108.128906 -49.171875 117.898438 -46.40625 129.953125 -46.40625 Z M 129.953125 -46.40625 "/></g></g></g><g fill="#ffffff" fill-opacity="1"><g transform="translate(289.762856, 469.63268)"><g><path d="M 34.6875 -356.640625 L 112.859375 -356.640625 L 112.859375 -290.6875 L 34.6875 -290.6875 Z M 36.640625 -261.859375 L 110.90625 -261.859375 L 110.90625 0 L 36.640625 0 Z M 36.640625 -261.859375 "/></g></g></g></g></g></svg>