<svg xmlns="http://www.w3.org/2000/svg" xmlns:xlink="http://www.w3.org/1999/xlink" width="1000" zoomAndPan="magnify" viewBox="0 0 750 374.999991" height="500" preserveAspectRatio="xMidYMid meet" version="1.0"><defs><g/><clipPath id="14d7179c82"><rect x="0" width="474" y="0" height="165"/></clipPath></defs><g transform="matrix(1, 0, 0, 1, 138, 105)"><g clip-path="url(#14d7179c82)"><g fill="#545454" fill-opacity="1"><g transform="translate(0.552715, 129.95752)"><g><path d="M 37.90625 -71 C 47.113281 -71 54.171875 -68.695312 59.078125 -64.09375 C 63.992188 -59.5 66.453125 -52.691406 66.453125 -43.671875 L 66.453125 0 L 57.34375 0 L 57.34375 -10.984375 C 55.195312 -7.328125 52.046875 -4.46875 47.890625 -2.40625 C 43.742188 -0.351562 38.8125 0.671875 33.09375 0.671875 C 25.226562 0.671875 18.972656 -1.203125 14.328125 -4.953125 C 9.691406 -8.703125 7.375 -13.660156 7.375 -19.828125 C 7.375 -25.804688 9.535156 -30.625 13.859375 -34.28125 C 18.191406 -37.945312 25.09375 -39.78125 34.5625 -39.78125 L 56.9375 -39.78125 L 56.9375 -44.078125 C 56.9375 -50.148438 55.238281 -54.769531 51.84375 -57.9375 C 48.445312 -61.113281 43.488281 -62.703125 36.96875 -62.703125 C 32.507812 -62.703125 28.222656 -61.960938 24.109375 -60.484375 C 20.003906 -59.015625 16.476562 -56.984375 13.53125 -54.390625 L 9.25 -61.484375 C 12.820312 -64.523438 17.109375 -66.867188 22.109375 -68.515625 C 27.109375 -70.171875 32.375 -71 37.90625 -71 Z M 34.5625 -6.828125 C 39.925781 -6.828125 44.523438 -8.054688 48.359375 -10.515625 C 52.203125 -12.972656 55.0625 -16.523438 56.9375 -21.171875 L 56.9375 -32.6875 L 34.828125 -32.6875 C 22.773438 -32.6875 16.75 -28.488281 16.75 -20.09375 C 16.75 -15.988281 18.3125 -12.75 21.4375 -10.375 C 24.5625 -8.007812 28.9375 -6.828125 34.5625 -6.828125 Z M 34.5625 -6.828125 "/></g></g></g><g fill="#545454" fill-opacity="1"><g transform="translate(79.589957, 129.95752)"><g><path d="M 13.265625 -70.46875 L 22.78125 -70.46875 L 22.78125 0 L 13.265625 0 Z M 18.09375 -85.875 C 16.125 -85.875 14.46875 -86.539062 13.125 -87.875 C 11.789062 -89.21875 11.125 -90.828125 11.125 -92.703125 C 11.125 -94.492188 11.789062 -96.054688 13.125 -97.390625 C 14.46875 -98.734375 16.125 -99.40625 18.09375 -99.40625 C 20.050781 -99.40625 21.703125 -98.753906 23.046875 -97.453125 C 24.390625 -96.160156 25.0625 -94.625 25.0625 -92.84375 C 25.0625 -90.875 24.390625 -89.21875 23.046875 -87.875 C 21.703125 -86.539062 20.050781 -85.875 18.09375 -85.875 Z M 18.09375 -85.875 "/></g></g></g><g fill="#000000" fill-opacity="1"><g transform="translate(115.629627, 129.95752)"><g><path d="M 30.546875 -76.09375 L 0.53125 -76.09375 L 0.53125 -93.78125 L 82.25 -93.78125 L 82.25 -76.09375 L 52.25 -76.09375 L 52.25 0 L 30.546875 0 Z M 30.546875 -76.09375 "/></g></g></g><g fill="#000000" fill-opacity="1"><g transform="translate(198.417783, 129.95752)"><g><path d="M 29.609375 -62.5625 C 32.109375 -66.039062 35.476562 -68.671875 39.71875 -70.453125 C 43.957031 -72.242188 48.847656 -73.140625 54.390625 -73.140625 L 54.390625 -53.859375 C 52.066406 -54.035156 50.503906 -54.125 49.703125 -54.125 C 43.710938 -54.125 39.019531 -52.445312 35.625 -49.09375 C 32.238281 -45.75 30.546875 -40.726562 30.546875 -34.03125 L 30.546875 0 L 9.640625 0 L 9.640625 -72.078125 L 29.609375 -72.078125 Z M 29.609375 -62.5625 "/></g></g></g><g fill="#000000" fill-opacity="1"><g transform="translate(256.155159, 129.95752)"><g><path d="M 9.640625 -72.078125 L 30.546875 -72.078125 L 30.546875 0 L 9.640625 0 Z M 20.09375 -82.125 C 16.25 -82.125 13.117188 -83.238281 10.703125 -85.46875 C 8.296875 -87.707031 7.09375 -90.476562 7.09375 -93.78125 C 7.09375 -97.082031 8.296875 -99.847656 10.703125 -102.078125 C 13.117188 -104.316406 16.25 -105.4375 20.09375 -105.4375 C 23.925781 -105.4375 27.046875 -104.363281 29.453125 -102.21875 C 31.867188 -100.070312 33.078125 -97.394531 33.078125 -94.1875 C 33.078125 -90.695312 31.867188 -87.8125 29.453125 -85.53125 C 27.046875 -83.257812 23.925781 -82.125 20.09375 -82.125 Z M 20.09375 -82.125 "/></g></g></g><g fill="#000000" fill-opacity="1"><g transform="translate(296.477544, 129.95752)"><g><path d="M 52.25 -73.140625 C 58.945312 -73.140625 65.039062 -71.597656 70.53125 -68.515625 C 76.03125 -65.441406 80.34375 -61.113281 83.46875 -55.53125 C 86.59375 -49.945312 88.15625 -43.445312 88.15625 -36.03125 C 88.15625 -28.625 86.59375 -22.128906 83.46875 -16.546875 C 80.34375 -10.960938 76.03125 -6.628906 70.53125 -3.546875 C 65.039062 -0.460938 58.945312 1.078125 52.25 1.078125 C 42.332031 1.078125 34.785156 -2.050781 29.609375 -8.3125 L 29.609375 0 L 9.640625 0 L 9.640625 -99.40625 L 30.546875 -99.40625 L 30.546875 -64.4375 C 35.816406 -70.238281 43.050781 -73.140625 52.25 -73.140625 Z M 48.625 -16.078125 C 53.988281 -16.078125 58.390625 -17.882812 61.828125 -21.5 C 65.265625 -25.113281 66.984375 -29.957031 66.984375 -36.03125 C 66.984375 -42.101562 65.265625 -46.945312 61.828125 -50.5625 C 58.390625 -54.1875 53.988281 -56 48.625 -56 C 43.269531 -56 38.875 -54.1875 35.4375 -50.5625 C 32 -46.945312 30.28125 -42.101562 30.28125 -36.03125 C 30.28125 -29.957031 32 -25.113281 35.4375 -21.5 C 38.875 -17.882812 43.269531 -16.078125 48.625 -16.078125 Z M 48.625 -16.078125 "/></g></g></g><g fill="#000000" fill-opacity="1"><g transform="translate(388.910939, 129.95752)"><g><path d="M 80.25 -35.765625 C 80.25 -35.503906 80.113281 -33.628906 79.84375 -30.140625 L 25.3125 -30.140625 C 26.300781 -25.671875 28.625 -22.140625 32.28125 -19.546875 C 35.945312 -16.960938 40.503906 -15.671875 45.953125 -15.671875 C 49.703125 -15.671875 53.023438 -16.226562 55.921875 -17.34375 C 58.828125 -18.46875 61.53125 -20.234375 64.03125 -22.640625 L 75.15625 -10.578125 C 68.363281 -2.804688 58.453125 1.078125 45.421875 1.078125 C 37.285156 1.078125 30.09375 -0.503906 23.84375 -3.671875 C 17.59375 -6.847656 12.769531 -11.25 9.375 -16.875 C 5.976562 -22.5 4.28125 -28.882812 4.28125 -36.03125 C 4.28125 -43.09375 5.953125 -49.457031 9.296875 -55.125 C 12.648438 -60.800781 17.253906 -65.222656 23.109375 -68.390625 C 28.960938 -71.554688 35.503906 -73.140625 42.734375 -73.140625 C 49.785156 -73.140625 56.171875 -71.617188 61.890625 -68.578125 C 67.609375 -65.546875 72.097656 -61.191406 75.359375 -55.515625 C 78.617188 -49.847656 80.25 -43.265625 80.25 -35.765625 Z M 42.875 -57.34375 C 38.132812 -57.34375 34.15625 -56 30.9375 -53.3125 C 27.726562 -50.632812 25.765625 -46.972656 25.046875 -42.328125 L 60.546875 -42.328125 C 59.835938 -46.890625 57.875 -50.53125 54.65625 -53.25 C 51.445312 -55.976562 47.519531 -57.34375 42.875 -57.34375 Z M 42.875 -57.34375 "/></g></g></g></g></g></svg>